<svg width="24" height="24" viewBox="0 0 24 24" fill="none" xmlns="http://www.w3.org/2000/svg">
<path d="M5.99876 21.9954C5.46844 21.9954 4.95984 21.7847 4.58484 21.4097C4.20985 21.0347 3.99918 20.5261 3.99918 19.9958V3.9991C3.99918 3.46878 4.20985 2.96017 4.58484 2.58518C4.95984 2.21018 5.46844 1.99951 5.99876 1.99951H13.9971C14.3136 1.999 14.6271 2.0611 14.9194 2.18225C15.2118 2.30339 15.4774 2.48117 15.7008 2.70537L19.288 6.29263C19.5128 6.51609 19.6911 6.78187 19.8126 7.07463C19.9341 7.36738 19.9964 7.68131 19.9959 7.99827V19.9958C19.9959 20.5261 19.7852 21.0347 19.4102 21.4097C19.0352 21.7847 18.5266 21.9954 17.9963 21.9954H5.99876Z" stroke="white" stroke-width="1.99959" stroke-linecap="round" stroke-linejoin="round"/>
<path d="M13.9971 1.99951V6.99848C13.9971 7.26364 14.1024 7.51794 14.2899 7.70544C14.4774 7.89293 14.7317 7.99827 14.9969 7.99827H19.9959" stroke="white" stroke-width="1.99959" stroke-linecap="round" stroke-linejoin="round"/>
<path d="M9.99835 8.99805H7.99835" stroke="white" stroke-width="1.99959" stroke-linecap="round" stroke-linejoin="round"/>
<path d="M15.9967 12.9973H7.99835" stroke="white" stroke-width="1.99959" stroke-linecap="round" stroke-linejoin="round"/>
<path d="M15.9967 16.9966H7.99835" stroke="white" stroke-width="1.99959" stroke-linecap="round" stroke-linejoin="round"/>
</svg>
