<svg width="27" height="21" viewBox="0 0 27 21" fill="none" xmlns="http://www.w3.org/2000/svg">
<path d="M4.89844 6.16602C4.96289 5.83659 5.05241 5.4821 5.16699 5.10254C5.28874 4.72298 5.41048 4.37207 5.53223 4.0498C5.66113 3.72038 5.77214 3.46257 5.86523 3.27637C6.02995 2.97559 6.21973 2.75716 6.43457 2.62109C6.64941 2.47786 6.93587 2.38118 7.29395 2.33105C7.65918 2.28092 8.31445 2.24154 9.25977 2.21289C10.2051 2.18424 11.4941 2.16992 13.127 2.16992C14.7598 2.16992 16.0524 2.18424 17.0049 2.21289C17.9574 2.23438 18.6126 2.27376 18.9707 2.33105C19.3288 2.38118 19.6117 2.47786 19.8193 2.62109C20.0342 2.75716 20.2275 2.97559 20.3994 3.27637C20.4997 3.4554 20.6071 3.70964 20.7217 4.03906C20.8434 4.36849 20.9616 4.72298 21.0762 5.10254C21.1979 5.4821 21.2982 5.83659 21.377 6.16602C21.4342 6.41667 21.4092 6.60645 21.3018 6.73535C21.2015 6.8571 21.0153 6.91081 20.7432 6.89648C20.2204 6.86784 19.6224 6.83919 18.9492 6.81055C18.276 6.7819 17.4704 6.75684 16.5322 6.73535C15.5941 6.71387 14.459 6.70312 13.127 6.70312C11.8021 6.70312 10.6706 6.71387 9.73242 6.73535C8.79427 6.75684 7.98861 6.7819 7.31543 6.81055C6.64225 6.83919 6.04427 6.86784 5.52148 6.89648C5.25651 6.91081 5.07031 6.8571 4.96289 6.73535C4.85547 6.60645 4.83398 6.41667 4.89844 6.16602ZM5.18848 14.5557C4.65853 14.5557 4.2181 14.3802 3.86719 14.0293C3.51628 13.6712 3.34082 13.2344 3.34082 12.7188C3.34082 12.1888 3.51628 11.7484 3.86719 11.3975C4.2181 11.0394 4.65853 10.8604 5.18848 10.8604C5.71126 10.8604 6.14811 11.0394 6.49902 11.3975C6.8571 11.7484 7.03613 12.1888 7.03613 12.7188C7.03613 13.2344 6.8571 13.6712 6.49902 14.0293C6.14811 14.3802 5.71126 14.5557 5.18848 14.5557ZM10.1943 14.0938C9.80046 14.0938 9.47819 13.9684 9.22754 13.7178C8.97689 13.4671 8.85156 13.1449 8.85156 12.751C8.85156 12.3571 8.97689 12.0384 9.22754 11.7949C9.47819 11.5443 9.80046 11.4189 10.1943 11.4189H16.0703C16.4642 11.4189 16.7865 11.5443 17.0371 11.7949C17.2878 12.0384 17.4131 12.3571 17.4131 12.751C17.4131 13.1449 17.2878 13.4671 17.0371 13.7178C16.7865 13.9684 16.4642 14.0938 16.0703 14.0938H10.1943ZM21.0762 14.5557C20.5534 14.5557 20.1165 14.3802 19.7656 14.0293C19.4147 13.6712 19.2393 13.2344 19.2393 12.7188C19.2393 12.1888 19.4147 11.7484 19.7656 11.3975C20.1165 11.0394 20.5534 10.8604 21.0762 10.8604C21.599 10.8604 22.0358 11.0394 22.3867 11.3975C22.7448 11.7484 22.9238 12.1888 22.9238 12.7188C22.9238 13.2344 22.7448 13.6712 22.3867 14.0293C22.0358 14.3802 21.599 14.5557 21.0762 14.5557ZM13.127 17.6172C14.0579 17.6172 15.0319 17.6064 16.0488 17.585C17.0658 17.5635 18.0612 17.5348 19.0352 17.499C20.0163 17.4561 20.9115 17.4095 21.7207 17.3594C22.5371 17.3092 23.1995 17.2555 23.708 17.1982C24.5173 17.098 25.1439 16.8223 25.5879 16.3711C26.0391 15.9199 26.2646 15.3076 26.2646 14.5342V12.7617C26.2646 12.11 26.2217 11.5443 26.1357 11.0645C26.057 10.5775 25.9173 10.1263 25.7168 9.71094C25.5163 9.29557 25.2477 8.86947 24.9111 8.43262L23.9336 7.21875C23.8047 6.57422 23.6471 5.93685 23.4609 5.30664C23.2747 4.67643 23.0885 4.11068 22.9023 3.60938C22.7233 3.10807 22.5729 2.72493 22.4512 2.45996C22.1432 1.80827 21.7028 1.28906 21.1299 0.902344C20.557 0.515625 19.891 0.272135 19.1318 0.171875C18.8525 0.128906 18.4264 0.0966797 17.8535 0.0751953C17.2878 0.0465495 16.6003 0.0286458 15.791 0.0214844C14.9889 0.00716146 14.1009 0 13.127 0C12.1602 0 11.2721 0.00716146 10.4629 0.0214844C9.66081 0.0358073 8.97331 0.0572917 8.40039 0.0859375C7.82747 0.107422 7.40853 0.136068 7.14355 0.171875C6.37728 0.264974 5.70768 0.508464 5.13477 0.902344C4.56185 1.28906 4.125 1.80827 3.82422 2.45996C3.69531 2.72493 3.53776 3.10807 3.35156 3.60938C3.17253 4.11068 2.98991 4.67643 2.80371 5.30664C2.61751 5.93685 2.45996 6.57422 2.33105 7.21875L1.35352 8.43262C1.00977 8.86947 0.741211 9.29557 0.547852 9.71094C0.354492 10.1263 0.214844 10.5775 0.128906 11.0645C0.0429688 11.5443 0 12.11 0 12.7617V14.5342C0 15.3076 0.222005 15.9235 0.666016 16.3818C1.11719 16.833 1.7474 17.1051 2.55664 17.1982C3.0651 17.2555 3.72396 17.3092 4.5332 17.3594C5.34245 17.4095 6.23405 17.4561 7.20801 17.499C8.18913 17.5348 9.18815 17.5635 10.2051 17.585C11.2292 17.6064 12.2031 17.6172 13.127 17.6172ZM1.47168 20.7109H2.78223C3.19759 20.7109 3.5485 20.5677 3.83496 20.2812C4.12142 20.002 4.26465 19.6546 4.26465 19.2393V16.4785L0 14.2979V19.2393C0 19.6546 0.139648 20.002 0.418945 20.2812C0.705404 20.5677 1.05632 20.7109 1.47168 20.7109ZM23.4824 20.7109H24.793C25.2083 20.7109 25.5557 20.5677 25.835 20.2812C26.1214 20.002 26.2646 19.6546 26.2646 19.2393V14.2979L22.0107 16.4785V19.2393C22.0107 19.6546 22.1504 20.002 22.4297 20.2812C22.7161 20.5677 23.0671 20.7109 23.4824 20.7109Z" fill="#F7F7F6"/>
</svg>
