<svg width="31" height="32" viewBox="0 0 31 32" fill="none" xmlns="http://www.w3.org/2000/svg">
<path d="M15.5001 14.6666C14.0362 13.2888 12.8414 12.1277 11.9157 11.1833C10.99 10.2388 10.2688 9.42214 9.75216 8.73325C9.2355 8.04436 8.88029 7.43881 8.68654 6.91659C8.49279 6.39436 8.39591 5.86659 8.39591 5.33325C8.39591 4.22214 8.77265 3.2777 9.52612 2.49992C10.2796 1.72214 11.2053 1.33325 12.3032 1.33325C12.906 1.33325 13.4872 1.47214 14.047 1.74992C14.6067 2.0277 15.0911 2.39992 15.5001 2.86659C15.9091 2.39992 16.3935 2.0277 16.9532 1.74992C17.5129 1.47214 18.0942 1.33325 18.697 1.33325C19.7949 1.33325 20.7206 1.72214 21.474 2.49992C22.2275 3.2777 22.6042 4.22214 22.6042 5.33325C22.6042 5.86659 22.5074 6.39436 22.3136 6.91659C22.1199 7.43881 21.7647 8.04436 21.248 8.73325C20.7313 9.42214 20.0102 10.2388 19.0845 11.1833C18.1588 12.1277 16.964 13.2888 15.5001 14.6666ZM15.5001 11.0666C17.0501 9.59992 18.1911 8.40547 18.923 7.48325C19.6549 6.56103 20.0209 5.84436 20.0209 5.33325C20.0209 4.95547 19.8917 4.63881 19.6334 4.38325C19.3751 4.1277 19.0629 3.99992 18.697 3.99992C18.4386 3.99992 18.1857 4.0777 17.9381 4.23325C17.6905 4.38881 17.4376 4.62214 17.1792 4.93325L15.5324 6.89992L13.8855 4.99992C13.5841 4.64436 13.3096 4.38881 13.0621 4.23325C12.8145 4.0777 12.5615 3.99992 12.3032 3.99992C11.9372 3.99992 11.6251 4.1277 11.3667 4.38325C11.1084 4.63881 10.9792 4.95547 10.9792 5.33325C10.9792 5.84436 11.3452 6.56103 12.0772 7.48325C12.8091 8.40547 13.9501 9.59992 15.5001 11.0666ZM3.87508 29.3333V25.2666C3.48758 25.1555 3.16466 24.9444 2.90633 24.6333C2.648 24.3221 2.4973 23.9444 2.45425 23.4999L1.29175 10.6666H2.09904C2.59418 10.6666 3.03012 10.8444 3.40685 11.1999C3.78359 11.5555 3.99348 11.9888 4.03654 12.4999L4.81154 21.3333H10.3334C11.0438 21.3333 11.652 21.5944 12.1579 22.1166C12.6638 22.6388 12.9167 23.2666 12.9167 23.9999V25.3333H11.6251V29.3333H9.68758V25.3333H5.81258V29.3333H3.87508ZM14.2084 29.3333V18.6666H6.45841C6.45841 17.9333 6.71137 17.3055 7.21727 16.7833C7.72317 16.261 8.33133 15.9999 9.04175 15.9999H21.9584C22.6688 15.9999 23.277 16.261 23.7829 16.7833C24.2888 17.3055 24.5417 17.9333 24.5417 18.6666H16.7917V29.3333H14.2084ZM19.3751 29.3333V25.3333H18.0834V23.9999C18.0834 23.2666 18.3364 22.6388 18.8423 22.1166C19.3482 21.5944 19.9563 21.3333 20.6667 21.3333H26.2209L26.9959 12.4999C27.039 11.9888 27.2435 11.5555 27.6095 11.1999C27.9754 10.8444 28.406 10.6666 28.9011 10.6666H29.7084L28.5782 23.4999C28.5352 23.9444 28.3791 24.3221 28.11 24.6333C27.8409 24.9444 27.5126 25.1555 27.1251 25.2666V29.3333H25.1876V25.3333H21.3126V29.3333H19.3751Z" fill="#1A50A4"/>
</svg>
