<svg width="15" height="17" viewBox="0 0 15 17" fill="none" xmlns="http://www.w3.org/2000/svg">
<path d="M2.06073 11.5568C0.795592 9.33238 0.087449 6.80709 0.00029319 4.21818C-0.00648494 4.0168 0.104754 3.83077 0.282974 3.73676L7.24985 0.0619383C7.40638 -0.0206461 7.59363 -0.0206461 7.75016 0.0619383L14.717 3.73676C14.8952 3.83077 15.0065 4.0168 14.9997 4.21818C14.9126 6.80709 14.2044 9.33238 12.9393 11.5568C11.6735 13.7822 9.89359 15.6304 7.76797 16.9299C7.60339 17.0305 7.39662 17.0305 7.23204 16.9299C5.10642 15.6304 3.32645 13.7822 2.06073 11.5568Z" fill="#45556C"/>
<path d="M4.81879 9.04621L6.96376 10.6549L11.2537 6.36499" fill="#45556C"/>
<path d="M4.81879 9.04621L6.96376 10.6549L11.2537 6.36499" stroke="white" stroke-width="1.93048" stroke-linecap="round" stroke-linejoin="round"/>
</svg>
