<svg width="40" height="40" viewBox="0 0 40 40" fill="none" xmlns="http://www.w3.org/2000/svg">
<path d="M0 19.986C0 8.94802 8.94802 0 19.986 0C31.0239 0 39.9719 8.94802 39.9719 19.986C39.9719 31.0239 31.0239 39.9719 19.986 39.9719C8.94802 39.9719 0 31.0239 0 19.986Z" fill="#ECEEF2"/>
<path d="M13.0813 23.8544C11.4788 21.0368 10.5818 17.8381 10.4714 14.5588C10.4629 14.3038 10.6038 14.0681 10.8295 13.949L19.6542 9.29428C19.8525 9.18967 20.0897 9.18967 20.2879 9.29428L29.1127 13.949C29.3384 14.0681 29.4793 14.3038 29.4707 14.5588C29.3603 17.8381 28.4633 21.0368 26.8608 23.8544C25.2576 26.6733 23.0029 29.0143 20.3105 30.6604C20.102 30.7878 19.8401 30.7878 19.6317 30.6604C16.9392 29.0143 14.6846 26.6733 13.0813 23.8544Z" fill="#1A50A4"/>
<path d="M16.575 20.674L19.2919 22.7118L24.7259 17.2778" fill="#1A50A4"/>
<path d="M16.575 20.674L19.2919 22.7118L24.7259 17.2778" stroke="white" stroke-width="1.93048" stroke-linecap="round" stroke-linejoin="round"/>
</svg>
