<svg width="40" height="40" viewBox="0 0 40 40" fill="none" xmlns="http://www.w3.org/2000/svg">
<circle opacity="0.05" cx="20" cy="20" r="20" fill="#1A50A4"/>
<path d="M13.5857 29.0371C12.9326 29.0371 12.3733 28.8084 11.9078 28.3511C11.4423 27.8938 11.2099 27.3447 11.2107 26.7038V11.5371H10.0232V9.20378H15.9607V8.03711H23.0857V9.20378H29.0232V11.5371H27.8357V26.7038C27.8357 27.3454 27.6029 27.8949 27.1374 28.3523C26.6719 28.8096 26.113 29.0379 25.4607 29.0371H13.5857ZM25.4607 11.5371H13.5857V26.7038H25.4607V11.5371ZM15.9607 24.3704H18.3357V13.8704H15.9607V24.3704ZM20.7107 24.3704H23.0857V13.8704H20.7107V24.3704Z" fill="#0A0A0A"/>
</svg>
