<svg width="24" height="24" viewBox="0 0 24 24" fill="none" xmlns="http://www.w3.org/2000/svg">
<path d="M15.9966 9.99805C15.9966 11.0587 15.5753 12.0759 14.8253 12.8259C14.0753 13.5759 13.0581 13.9972 11.9975 13.9972C10.9368 13.9972 9.91961 13.5759 9.16962 12.8259C8.41963 12.0759 7.99829 11.0587 7.99829 9.99805" stroke="#1A50A4" stroke-width="1.99959" stroke-linecap="round" stroke-linejoin="round"/>
<path d="M3.10229 6.03271H20.8926" stroke="#1A50A4" stroke-width="1.99959" stroke-linecap="round" stroke-linejoin="round"/>
<path d="M3.39918 5.46579C3.13959 5.81191 2.99927 6.23289 2.99927 6.66554V19.9958C2.99927 20.5261 3.20994 21.0347 3.58493 21.4097C3.95993 21.7847 4.46853 21.9954 4.99885 21.9954H18.996C19.5263 21.9954 20.0349 21.7847 20.4099 21.4097C20.7849 21.0347 20.9955 20.5261 20.9955 19.9958V6.66554C20.9955 6.23289 20.8552 5.81191 20.5956 5.46579L18.596 2.79935C18.4098 2.55101 18.1683 2.34944 17.8906 2.21061C17.613 2.07179 17.3068 1.99951 16.9964 1.99951H6.99844C6.68801 1.99951 6.38185 2.07179 6.1042 2.21061C5.82654 2.34944 5.58503 2.55101 5.39877 2.79935L3.39918 5.46579Z" stroke="#1A50A4" stroke-width="1.99959" stroke-linecap="round" stroke-linejoin="round"/>
</svg>
