<svg width="96" height="96" viewBox="0 0 96 96" fill="none" xmlns="http://www.w3.org/2000/svg">
<path d="M0 47.9992C0 21.49 21.49 0 47.9992 0C74.5084 0 95.9983 21.49 95.9983 47.9992C95.9983 74.5084 74.5084 95.9983 47.9992 95.9983C21.49 95.9983 0 74.5084 0 47.9992Z" fill="#FFFBEB"/>
<path d="M0 47.9992C0 21.49 21.49 0 47.9992 0C74.5084 0 95.9983 21.49 95.9983 47.9992C95.9983 74.5084 74.5084 95.9983 47.9992 95.9983C21.49 95.9983 0 74.5084 0 47.9992Z" fill="url(#paint0_linear_1087_3105)"/>
<path d="M47.0489 28.5893C47.1365 28.4122 47.2719 28.2632 47.4398 28.1589C47.6076 28.0547 47.8013 27.9995 47.9989 27.9995C48.1964 27.9995 48.3901 28.0547 48.5579 28.1589C48.7258 28.2632 48.8612 28.4122 48.9488 28.5893L53.5688 37.9471C53.8731 38.5631 54.3224 39.0959 54.878 39.5C55.4336 39.9041 56.079 40.1673 56.7587 40.2671L67.0905 41.7791C67.2863 41.8074 67.4702 41.89 67.6215 42.0175C67.7728 42.1449 67.8854 42.3121 67.9466 42.5003C68.0077 42.6884 68.0151 42.8899 67.9677 43.0819C67.9203 43.274 67.8202 43.4489 67.6785 43.587L60.2066 50.8629C59.7139 51.3431 59.3452 51.9359 59.1323 52.5901C58.9195 53.2444 58.8688 53.9406 58.9847 54.6188L60.7486 64.8987C60.7832 65.0943 60.7621 65.2958 60.6876 65.48C60.6132 65.6643 60.4885 65.8239 60.3277 65.9406C60.167 66.0574 59.9766 66.1266 59.7784 66.1404C59.5802 66.1542 59.3821 66.112 59.2067 66.0186L49.9708 61.1627C49.3623 60.8432 48.6852 60.6762 47.9979 60.6762C47.3105 60.6762 46.6334 60.8432 46.0249 61.1627L36.7911 66.0186C36.6157 66.1115 36.4179 66.1532 36.22 66.1392C36.0221 66.1251 35.8321 66.0558 35.6717 65.9391C35.5112 65.8224 35.3867 65.663 35.3124 65.4791C35.238 65.2952 35.2168 65.0941 35.2511 64.8987L37.013 54.6208C37.1294 53.9423 37.079 53.2457 36.8661 52.591C36.6532 51.9363 36.2843 51.3432 35.7911 50.8629L28.3192 43.589C28.1764 43.4511 28.0752 43.2758 28.0271 43.0832C27.9791 42.8905 27.9861 42.6883 28.0474 42.4994C28.1086 42.3106 28.2217 42.1427 28.3738 42.015C28.5258 41.8873 28.7106 41.8049 28.9072 41.7771L39.237 40.2671C39.9175 40.1681 40.5638 39.9052 41.1201 39.5011C41.6765 39.0969 42.1264 38.5637 42.431 37.9471L47.0489 28.5893Z" stroke="#E17100" stroke-width="2.99995" stroke-linecap="round" stroke-linejoin="round"/>
<defs>
<linearGradient id="paint0_linear_1087_3105" x1="0" y1="0" x2="95.9983" y2="95.9983" gradientUnits="userSpaceOnUse">
<stop stop-color="white" stop-opacity="0.5"/>
<stop offset="1" stop-opacity="0"/>
</linearGradient>
</defs>
</svg>
