<svg width="96" height="96" viewBox="0 0 96 96" fill="none" xmlns="http://www.w3.org/2000/svg">
<path d="M0 47.9992C0 21.49 21.49 0 47.9992 0C74.5084 0 95.9983 21.49 95.9983 47.9992C95.9983 74.5084 74.5084 95.9983 47.9992 95.9983C21.49 95.9983 0 74.5084 0 47.9992Z" fill="#FEF2F2"/>
<path d="M0 47.9992C0 21.49 21.49 0 47.9992 0C74.5084 0 95.9983 21.49 95.9983 47.9992C95.9983 74.5084 74.5084 95.9983 47.9992 95.9983C21.49 95.9983 0 74.5084 0 47.9992Z" fill="url(#paint0_linear_1087_3011)"/>
<path d="M27.9995 42.9994C27.9996 40.7738 28.6747 38.6006 29.9357 36.7668C31.1968 34.933 32.9845 33.5249 35.0626 32.7284C37.1408 31.9319 39.4116 31.7845 41.5753 32.3057C43.739 32.8269 45.6937 33.9921 47.1812 35.6475C47.286 35.7596 47.4126 35.8489 47.5533 35.9099C47.694 35.971 47.8458 36.0025 47.9992 36.0025C48.1526 36.0025 48.3043 35.971 48.445 35.9099C48.5857 35.8489 48.7124 35.7596 48.8172 35.6475C50.3 33.9814 52.2551 32.8063 54.4223 32.2788C56.5895 31.7513 58.866 31.8963 60.9487 32.6945C63.0314 33.4928 64.8216 34.9064 66.0811 36.7473C67.3405 38.5882 68.0094 40.769 67.9988 42.9994C67.9988 47.5793 64.9989 50.9993 61.9989 53.9992L51.0151 64.625C50.6425 65.053 50.183 65.3968 49.6672 65.6336C49.1515 65.8704 48.5912 65.9947 48.0237 65.9983C47.4562 66.0019 46.8945 65.8847 46.3758 65.6545C45.8571 65.4242 45.3933 65.0863 45.0152 64.663L33.9994 53.9992C30.9995 50.9993 27.9995 47.5993 27.9995 42.9994Z" stroke="#E7000B" stroke-width="2.99995" stroke-linecap="round" stroke-linejoin="round"/>
<defs>
<linearGradient id="paint0_linear_1087_3011" x1="0" y1="0" x2="95.9983" y2="95.9983" gradientUnits="userSpaceOnUse">
<stop stop-color="white" stop-opacity="0.5"/>
<stop offset="1" stop-opacity="0"/>
</linearGradient>
</defs>
</svg>
