<svg width="24" height="24" viewBox="0 0 24 24" fill="none" xmlns="http://www.w3.org/2000/svg">
<g clip-path="url(#clip0_401_611)">
<path d="M7.49854 7.99854C7.77468 7.99854 7.99854 7.77468 7.99854 7.49854C7.99854 7.22239 7.77468 6.99854 7.49854 6.99854C7.22239 6.99854 6.99854 7.22239 6.99854 7.49854C6.99854 7.77468 7.22239 7.99854 7.49854 7.99854Z" fill="#6A7282" stroke="#6A7282" stroke-width="1.99959" stroke-linecap="round" stroke-linejoin="round"/>
<g clip-path="url(#clip1_401_611)">
<path d="M2.2229 22.002L7.2229 8.00195L16.2229 17.002L2.2229 22.002ZM5.5229 18.702L12.5729 16.202L8.0229 11.652L5.5229 18.702ZM14.7729 12.552L13.7229 11.502L19.3229 5.90195C19.8562 5.36862 20.4979 5.10195 21.2479 5.10195C21.9979 5.10195 22.6396 5.36862 23.1729 5.90195L23.7729 6.50195L22.7229 7.55195L22.1229 6.95195C21.8896 6.71862 21.5979 6.60195 21.2479 6.60195C20.8979 6.60195 20.6062 6.71862 20.3729 6.95195L14.7729 12.552ZM10.7729 8.55195L9.7229 7.50195L10.3229 6.90195C10.5562 6.66862 10.6729 6.38529 10.6729 6.05195C10.6729 5.71862 10.5562 5.43529 10.3229 5.20195L9.6729 4.55195L10.7229 3.50195L11.3729 4.15195C11.9062 4.68529 12.1729 5.31862 12.1729 6.05195C12.1729 6.78529 11.9062 7.41862 11.3729 7.95195L10.7729 8.55195ZM12.7729 10.552L11.7229 9.50195L15.3229 5.90195C15.5562 5.66862 15.6729 5.37695 15.6729 5.02695C15.6729 4.67695 15.5562 4.38529 15.3229 4.15195L13.7229 2.55195L14.7729 1.50195L16.3729 3.10195C16.9062 3.63529 17.1729 4.27695 17.1729 5.02695C17.1729 5.77695 16.9062 6.41862 16.3729 6.95195L12.7729 10.552ZM16.7729 14.552L15.7229 13.502L17.3229 11.902C17.8562 11.3686 18.4979 11.102 19.2479 11.102C19.9979 11.102 20.6396 11.3686 21.1729 11.902L22.7729 13.502L21.7229 14.552L20.1229 12.952C19.8896 12.7186 19.5979 12.602 19.2479 12.602C18.8979 12.602 18.6062 12.7186 18.3729 12.952L16.7729 14.552Z" fill="#6A7282"/>
</g>
</g>
<defs>
<clipPath id="clip0_401_611">
<rect width="23.995" height="23.995" fill="white"/>
</clipPath>
<clipPath id="clip1_401_611">
<rect width="24" height="24" fill="white" transform="translate(0.2229 0.00195312)"/>
</clipPath>
</defs>
</svg>
