<svg width="24" height="24" viewBox="0 0 24 24" fill="none" xmlns="http://www.w3.org/2000/svg">
<path d="M16.2367 7.7583L14.433 13.1682C14.3349 13.4627 14.1695 13.7303 13.95 13.9498C13.7304 14.1694 13.4628 14.3348 13.1683 14.4329L7.75842 16.2365L9.56205 10.8267C9.66021 10.5321 9.8256 10.2645 10.0451 10.045C10.2646 9.82548 10.5323 9.66009 10.8268 9.56193L16.2367 7.7583Z" stroke="#1A50A4" stroke-width="1.99959" stroke-linecap="round" stroke-linejoin="round"/>
<path d="M11.9976 21.9954C17.5193 21.9954 21.9955 17.5191 21.9955 11.9974C21.9955 6.47574 17.5193 1.99951 11.9976 1.99951C6.47586 1.99951 1.99963 6.47574 1.99963 11.9974C1.99963 17.5191 6.47586 21.9954 11.9976 21.9954Z" stroke="#1A50A4" stroke-width="1.99959" stroke-linecap="round" stroke-linejoin="round"/>
</svg>
