<svg width="24" height="24" viewBox="0 0 24 24" fill="none" xmlns="http://www.w3.org/2000/svg">
<path d="M16.2365 7.75842L14.4329 13.1683C14.3348 13.4628 14.1694 13.7304 13.9498 13.95C13.7303 14.1695 13.4627 14.3349 13.1682 14.433L7.7583 16.2367L9.56193 10.8268C9.66009 10.5323 9.82548 10.2646 10.045 10.0451C10.2645 9.8256 10.5321 9.66021 10.8267 9.56205L16.2365 7.75842Z" stroke="#6A7282" stroke-width="1.99959" stroke-linecap="round" stroke-linejoin="round"/>
<path d="M11.9974 21.9955C17.5191 21.9955 21.9954 17.5193 21.9954 11.9976C21.9954 6.47586 17.5191 1.99963 11.9974 1.99963C6.47574 1.99963 1.99951 6.47586 1.99951 11.9976C1.99951 17.5193 6.47574 21.9955 11.9974 21.9955Z" stroke="#6A7282" stroke-width="1.99959" stroke-linecap="round" stroke-linejoin="round"/>
</svg>
