<svg width="20" height="20" viewBox="0 0 20 20" fill="none" xmlns="http://www.w3.org/2000/svg">
<g clip-path="url(#clip0_673_2416)">
<path d="M9.99301 18.3205C14.5922 18.3205 18.3205 14.5922 18.3205 9.99301C18.3205 5.39387 14.5922 1.66553 9.99301 1.66553C5.39387 1.66553 1.66553 5.39387 1.66553 9.99301C1.66553 14.5922 5.39387 18.3205 9.99301 18.3205Z" stroke="#1A50A4" stroke-width="1.6655" stroke-linecap="round" stroke-linejoin="round"/>
<path d="M7.5697 7.49491C7.76548 6.93835 8.15192 6.46905 8.66056 6.17012C9.16921 5.87118 9.76724 5.76191 10.3487 5.86165C10.9302 5.96139 11.4577 6.26371 11.8376 6.71506C12.2176 7.16641 12.4255 7.73767 12.4246 8.32766C12.4246 9.99315 9.92638 10.8259 9.92638 10.8259" stroke="#1A50A4" stroke-width="1.6655" stroke-linecap="round" stroke-linejoin="round"/>
<path d="M9.99292 14.1567H10.0012" stroke="#1A50A4" stroke-width="1.6655" stroke-linecap="round" stroke-linejoin="round"/>
</g>
<defs>
<clipPath id="clip0_673_2416">
<rect width="19.986" height="19.986" fill="white"/>
</clipPath>
</defs>
</svg>
