<svg width="40" height="40" viewBox="0 0 40 40" fill="none" xmlns="http://www.w3.org/2000/svg">
<path d="M0 19.986C0 8.94802 8.94802 0 19.986 0C31.0239 0 39.9719 8.94802 39.9719 19.986C39.9719 31.0239 31.0239 39.9719 19.986 39.9719C8.94802 39.9719 0 31.0239 0 19.986Z" fill="#ECEEF2"/>
<path d="M25.4211 22.4858C25.5211 21.6608 25.5961 20.8358 25.5961 19.9858C25.5961 19.1358 25.5211 18.3108 25.4211 17.4858H29.6461C29.8461 18.2858 29.9711 19.1233 29.9711 19.9858C29.9711 20.8483 29.8461 21.6858 29.6461 22.4858M23.2086 29.4358C23.9586 28.0483 24.5336 26.5483 24.9336 24.9858H28.6211C27.41 27.0712 25.4887 28.6508 23.2086 29.4358ZM22.8961 22.4858H17.0461C16.9211 21.6608 16.8461 20.8358 16.8461 19.9858C16.8461 19.1358 16.9211 18.2983 17.0461 17.4858H22.8961C23.0086 18.2983 23.0961 19.1358 23.0961 19.9858C23.0961 20.8358 23.0086 21.6608 22.8961 22.4858ZM19.9711 29.9358C18.9336 28.4358 18.0961 26.7733 17.5836 24.9858H22.3586C21.8461 26.7733 21.0086 28.4358 19.9711 29.9358ZM14.9711 14.9858H11.3211C12.5196 12.8949 14.4396 11.3127 16.7211 10.5358C15.9711 11.9233 15.4086 13.4233 14.9711 14.9858ZM11.3211 24.9858H14.9711C15.4086 26.5483 15.9711 28.0483 16.7211 29.4358C14.4443 28.6504 12.5271 27.0705 11.3211 24.9858ZM10.2961 22.4858C10.0961 21.6858 9.97107 20.8483 9.97107 19.9858C9.97107 19.1233 10.0961 18.2858 10.2961 17.4858H14.5211C14.4211 18.3108 14.3461 19.1358 14.3461 19.9858C14.3461 20.8358 14.4211 21.6608 14.5211 22.4858M19.9711 10.0233C21.0086 11.5233 21.8461 13.1983 22.3586 14.9858H17.5836C18.0961 13.1983 18.9336 11.5233 19.9711 10.0233ZM28.6211 14.9858H24.9336C24.5423 13.4377 23.963 11.9432 23.2086 10.5358C25.5086 11.3233 27.4211 12.9108 28.6211 14.9858ZM19.9711 7.48584C13.0586 7.48584 7.47107 13.1108 7.47107 19.9858C7.47107 23.301 8.78803 26.4805 11.1322 28.8247C12.293 29.9854 13.671 30.9062 15.1875 31.5343C16.7041 32.1625 18.3295 32.4858 19.9711 32.4858C23.2863 32.4858 26.4657 31.1689 28.8099 28.8247C31.1541 26.4805 32.4711 23.301 32.4711 19.9858C32.4711 18.3443 32.1477 16.7189 31.5196 15.2023C30.8914 13.6857 29.9706 12.3077 28.8099 11.147C27.6492 9.98627 26.2712 9.06553 24.7546 8.43735C23.238 7.80916 21.6126 7.48584 19.9711 7.48584Z" fill="#0A0A0A"/>
</svg>
