<svg width="16" height="16" viewBox="0 0 16 16" fill="none" xmlns="http://www.w3.org/2000/svg">
<g clip-path="url(#clip0_96_650)">
<path d="M13.3141 6.65693C13.3141 9.98079 9.62677 13.4424 8.38856 14.5116C8.27321 14.5983 8.13279 14.6452 7.98847 14.6452C7.84415 14.6452 7.70373 14.5983 7.58838 14.5116C6.35017 13.4424 2.66284 9.98079 2.66284 6.65693C2.66284 5.24448 3.22393 3.88989 4.22268 2.89114C5.22143 1.89239 6.57603 1.3313 7.98847 1.3313C9.40092 1.3313 10.7555 1.89239 11.7543 2.89114C12.753 3.88989 13.3141 5.24448 13.3141 6.65693Z" stroke="#ECEEF2" stroke-width="1.33141" stroke-linecap="round" stroke-linejoin="round"/>
<path d="M7.98857 8.65413C9.09154 8.65413 9.98568 7.76 9.98568 6.65702C9.98568 5.55405 9.09154 4.65991 7.98857 4.65991C6.88559 4.65991 5.99146 5.55405 5.99146 6.65702C5.99146 7.76 6.88559 8.65413 7.98857 8.65413Z" stroke="#ECEEF2" stroke-width="1.33141" stroke-linecap="round" stroke-linejoin="round"/>
</g>
<defs>
<clipPath id="clip0_96_650">
<rect width="15.9769" height="15.9769" fill="white"/>
</clipPath>
</defs>
</svg>
