<svg width="22" height="18" viewBox="0 0 22 18" fill="none" xmlns="http://www.w3.org/2000/svg">
<path d="M21.4687 10.7511C21.4687 10.7511 21.4687 10.7511 21.4687 10.7464C21.4013 10.5573 21.3221 10.3725 21.2316 10.1933L17.3372 1.33203C17.2809 1.20443 17.2015 1.08839 17.1028 0.989842C16.7894 0.676327 16.4173 0.427628 16.0077 0.25795C15.5982 0.0882709 15.1592 0.0009377 14.7159 0.0009377C14.2726 0.0009377 13.8337 0.0882709 13.4241 0.25795C13.0146 0.427628 12.6425 0.676327 12.3291 0.989842C12.1186 1.20054 12.0003 1.4861 12 1.7839V3.75265H9.75V1.7839C9.74998 1.48577 9.63163 1.19983 9.42093 0.988904C9.10752 0.67539 8.73542 0.426691 8.32587 0.257012C7.91633 0.0873336 7.47736 0 7.03406 0C6.59076 0 6.15179 0.0873336 5.74225 0.257012C5.3327 0.426691 4.9606 0.67539 4.64718 0.988904C4.54853 1.08746 4.46905 1.20349 4.41281 1.33109L0.518435 10.1933C0.427909 10.3725 0.348692 10.5573 0.281248 10.7464C0.281248 10.7464 0.281248 10.7464 0.281248 10.7511C0.0434099 11.4206 -0.0452079 12.134 0.0215988 12.8414C0.0884055 13.5487 0.309022 14.2329 0.668001 14.8461C1.02698 15.4592 1.51565 15.9865 2.09978 16.3909C2.68392 16.7954 3.34941 17.0673 4.04965 17.1876C4.7499 17.3079 5.46797 17.2737 6.1536 17.0873C6.83923 16.901 7.47584 16.567 8.01886 16.1088C8.56187 15.6506 8.99817 15.0793 9.2972 14.4347C9.59624 13.7902 9.75077 13.0882 9.75 12.3777V6.00266H12V12.3777C11.9992 13.0882 12.1538 13.7902 12.4528 14.4347C12.7518 15.0793 13.1881 15.6506 13.7311 16.1088C14.2742 16.567 14.9108 16.901 15.5964 17.0873C16.282 17.2737 17.0001 17.3079 17.7003 17.1876C18.4006 17.0673 19.0661 16.7954 19.6502 16.3909C20.2343 15.9865 20.723 15.4592 21.082 14.8461C21.441 14.2329 21.6616 13.5487 21.7284 12.8414C21.7952 12.134 21.7066 11.4206 21.4687 10.7511ZM6.375 2.4664C6.53573 2.34973 6.72449 2.27769 6.92208 2.2576C7.11968 2.23751 7.31907 2.27009 7.5 2.35203V8.27234C6.50256 7.63227 5.30581 7.37826 4.13437 7.55797L6.375 2.4664ZM4.875 15.0027C4.35582 15.0027 3.8483 14.8487 3.41663 14.5603C2.98495 14.2718 2.64849 13.8619 2.44981 13.3822C2.25113 12.9025 2.19915 12.3747 2.30044 11.8655C2.40172 11.3563 2.65173 10.8886 3.01884 10.5215C3.38596 10.1544 3.85369 9.90438 4.36289 9.80309C4.87209 9.70181 5.39989 9.75379 5.87954 9.95247C6.3592 10.1512 6.76917 10.4876 7.05761 10.9193C7.34604 11.351 7.5 11.8585 7.5 12.3777C7.5 13.0738 7.22344 13.7415 6.73115 14.2338C6.23887 14.7261 5.57119 15.0027 4.875 15.0027ZM14.25 2.35203C14.4311 2.27066 14.6303 2.23839 14.8278 2.25847C15.0253 2.27855 15.214 2.35026 15.375 2.4664L17.6128 7.55797C16.4414 7.37826 15.2446 7.63227 14.2472 8.27234L14.25 2.35203ZM16.875 15.0027C16.3558 15.0027 15.8483 14.8487 15.4166 14.5603C14.9849 14.2718 14.6485 13.8619 14.4498 13.3822C14.2511 12.9025 14.1991 12.3747 14.3004 11.8655C14.4017 11.3563 14.6517 10.8886 15.0188 10.5215C15.386 10.1544 15.8537 9.90438 16.3629 9.80309C16.8721 9.70181 17.3999 9.75379 17.8795 9.95247C18.3592 10.1512 18.7692 10.4876 19.0576 10.9193C19.346 11.351 19.5 11.8585 19.5 12.3777C19.5 13.0738 19.2234 13.7415 18.7312 14.2338C18.2389 14.7261 17.5712 15.0027 16.875 15.0027Z" fill="#6A7282"/>
</svg>
