<svg width="20" height="20" viewBox="0 0 20 20" fill="none" xmlns="http://www.w3.org/2000/svg">
<g clip-path="url(#clip0_96_656)">
<path d="M8.55078 17.4878C8.69696 17.741 8.90721 17.9512 9.16039 18.0974C9.41357 18.2435 9.70076 18.3205 9.9931 18.3205C10.2854 18.3205 10.5726 18.2435 10.8258 18.0974C11.079 17.9512 11.2892 17.741 11.4354 17.4878" stroke="white" stroke-width="1.6655" stroke-linecap="round" stroke-linejoin="round"/>
<path d="M2.71635 12.7627C2.60756 12.882 2.53577 13.0302 2.50971 13.1895C2.48365 13.3488 2.50443 13.5122 2.56954 13.6599C2.63465 13.8076 2.74128 13.9332 2.87645 14.0214C3.01162 14.1096 3.16951 14.1566 3.33092 14.1568H16.6549C16.8163 14.1568 16.9742 14.11 17.1095 14.0219C17.2447 13.9339 17.3515 13.8085 17.4168 13.6609C17.482 13.5133 17.503 13.3499 17.4772 13.1906C17.4513 13.0313 17.3797 12.8829 17.2711 12.7636C16.1636 11.6219 14.9894 10.4086 14.9894 6.66202C14.9894 5.33687 14.463 4.06599 13.526 3.12897C12.5889 2.19194 11.3181 1.66553 9.99291 1.66553C8.66775 1.66553 7.39688 2.19194 6.45985 3.12897C5.52283 4.06599 4.99642 5.33687 4.99642 6.66202C4.99642 10.4086 3.82141 11.6219 2.71635 12.7627Z" stroke="white" stroke-width="1.6655" stroke-linecap="round" stroke-linejoin="round"/>
</g>
<defs>
<clipPath id="clip0_96_656">
<rect width="19.986" height="19.986" fill="white"/>
</clipPath>
</defs>
</svg>
