<svg width="24" height="24" viewBox="0 0 24 24" fill="none" xmlns="http://www.w3.org/2000/svg">
<path d="M12.5833 2.58539C12.2084 2.21037 11.6999 1.99962 11.1696 1.99951H3.9991C3.46877 1.99951 2.96017 2.21018 2.58518 2.58518C2.21018 2.96017 1.99951 3.46877 1.99951 3.9991V11.1696C1.99962 11.6999 2.21037 12.2084 2.58539 12.5833L11.2876 21.2855C11.742 21.7371 12.3566 21.9905 12.9972 21.9905C13.6379 21.9905 14.2525 21.7371 14.7069 21.2855L21.2855 14.7069C21.7371 14.2525 21.9905 13.6379 21.9905 12.9972C21.9905 12.3566 21.7371 11.742 21.2855 11.2876L12.5833 2.58539Z" stroke="#45556C" stroke-width="1.99959" stroke-linecap="round" stroke-linejoin="round"/>
<path d="M7.49854 7.99854C7.77468 7.99854 7.99854 7.77468 7.99854 7.49854C7.99854 7.22239 7.77468 6.99854 7.49854 6.99854C7.22239 6.99854 6.99854 7.22239 6.99854 7.49854C6.99854 7.77468 7.22239 7.99854 7.49854 7.99854Z" fill="#45556C" stroke="#45556C" stroke-width="1.99959" stroke-linecap="round" stroke-linejoin="round"/>
</svg>
