<svg width="18" height="20" viewBox="0 0 18 20" fill="none" xmlns="http://www.w3.org/2000/svg">
<path d="M17.2963 10.545L9.60315 18.2325C8.54792 19.2873 7.11687 19.8798 5.62481 19.8795C4.13276 19.8793 2.70192 19.2863 1.64706 18.2311C0.592201 17.1758 -0.000263635 15.7448 8.80053e-08 14.2527C0.000263811 12.7607 0.593234 11.3298 1.64846 10.275L10.851 1.09777C11.5545 0.394617 12.5085 -0.000263591 13.5032 1.32012e-07C13.9957 0.000130714 14.4834 0.0972678 14.9384 0.285865C15.3933 0.474462 15.8067 0.750826 16.1549 1.09918C16.503 1.44753 16.7792 1.86105 16.9675 2.31612C17.1559 2.77119 17.2528 3.25891 17.2526 3.75142C17.2525 4.24394 17.1554 4.7316 16.9668 5.18657C16.7782 5.64155 16.5018 6.05492 16.1535 6.40308L16.1375 6.41808L7.15628 15.0637C7.04978 15.1661 6.92416 15.2466 6.78657 15.3005C6.64898 15.3544 6.50213 15.3806 6.3544 15.3777C6.20667 15.3749 6.06095 15.3429 5.92556 15.2837C5.79017 15.2245 5.66777 15.1393 5.56534 15.0328C5.46291 14.9263 5.38246 14.8007 5.32858 14.6631C5.27469 14.5255 5.24844 14.3786 5.25131 14.2309C5.25419 14.0832 5.28613 13.9374 5.34532 13.8021C5.40451 13.6667 5.48978 13.5443 5.59628 13.4418L14.5691 4.80558C14.8496 4.52338 15.0064 4.14131 15.0052 3.74344C15.004 3.34557 14.8447 2.96449 14.5625 2.68402C14.4228 2.54515 14.2571 2.43516 14.0748 2.36033C13.8926 2.2855 13.6974 2.2473 13.5004 2.24791C13.1025 2.24914 12.7214 2.40838 12.441 2.69058L3.23846 11.865C2.60555 12.4981 2.25008 13.3568 2.25026 14.252C2.25034 14.6953 2.33774 15.1342 2.50746 15.5437C2.67718 15.9533 2.92589 16.3253 3.2394 16.6387C3.55291 16.9521 3.92508 17.2007 4.33465 17.3702C4.74423 17.5398 5.18319 17.627 5.62647 17.6269C6.52172 17.6267 7.38024 17.2709 8.01315 16.6378L15.7063 8.95027C15.8109 8.84562 15.9352 8.76261 16.0719 8.70598C16.2086 8.64934 16.3552 8.6202 16.5032 8.6202C16.6511 8.6202 16.7977 8.64934 16.9344 8.70598C17.0711 8.76261 17.1954 8.84562 17.3 8.95027C17.4047 9.05492 17.4877 9.17915 17.5443 9.31588C17.601 9.45261 17.6301 9.59915 17.6301 9.74715C17.6301 9.89514 17.601 10.0417 17.5443 10.1784C17.4877 10.3151 17.4047 10.4394 17.3 10.544L17.2963 10.545Z" fill="white"/>
</svg>
