<svg width="19" height="21" viewBox="0 0 19 21" fill="none" xmlns="http://www.w3.org/2000/svg">
<path d="M9.75 11.25H1.125C0.826632 11.25 0.540483 11.1315 0.329506 10.9205C0.118526 10.7095 0 10.4234 0 10.125C0 9.82663 0.118526 9.54048 0.329506 9.3295C0.540483 9.11853 0.826632 9 1.125 9H9.75C10.0484 9 10.3345 9.11853 10.5455 9.3295C10.7565 9.54048 10.875 9.82663 10.875 10.125C10.875 10.4234 10.7565 10.7095 10.5455 10.9205C10.3345 11.1315 10.0484 11.25 9.75 11.25ZM3.375 16.875C3.375 16.5766 3.25647 16.2905 3.04549 16.0795C2.83452 15.8685 2.54837 15.75 2.25 15.75H1.125C0.826632 15.75 0.540483 15.8685 0.329506 16.0795C0.118526 16.2905 0 16.5766 0 16.875C0 17.1734 0.118526 17.4595 0.329506 17.6705C0.540483 17.8815 0.826632 18 1.125 18H2.25C2.54837 18 2.83452 17.8815 3.04549 17.6705C3.25647 17.4595 3.375 17.1734 3.375 16.875ZM7.125 19.125V18H17.625C17.9234 18 18.2095 17.8815 18.4205 17.6705C18.6315 17.4595 18.75 17.1734 18.75 16.875C18.75 16.5766 18.6315 16.2905 18.4205 16.0795C18.2095 15.8685 17.9234 15.75 17.625 15.75H7.125V14.625C7.125 14.3266 7.00647 14.0405 6.79549 13.8295C6.58452 13.6185 6.29837 13.5 6 13.5C5.70163 13.5 5.41548 13.6185 5.20451 13.8295C4.99353 14.0405 4.875 14.3266 4.875 14.625V19.125C4.875 19.4234 4.99353 19.7095 5.20451 19.9205C5.41548 20.1315 5.70163 20.25 6 20.25C6.29837 20.25 6.58452 20.1315 6.79549 19.9205C7.00647 19.7095 7.125 19.4234 7.125 19.125ZM6.375 3.375C6.375 3.07663 6.25647 2.79048 6.04549 2.5795C5.83452 2.36853 5.54837 2.25 5.25 2.25H1.125C0.826632 2.25 0.540483 2.36853 0.329506 2.5795C0.118526 2.79048 0 3.07663 0 3.375C0 3.67337 0.118526 3.95952 0.329506 4.1705C0.540483 4.38147 0.826632 4.5 1.125 4.5H5.25C5.54837 4.5 5.83452 4.38147 6.04549 4.1705C6.25647 3.95952 6.375 3.67337 6.375 3.375ZM10.125 5.625V4.5H17.625C17.9234 4.5 18.2095 4.38147 18.4205 4.1705C18.6315 3.95952 18.75 3.67337 18.75 3.375C18.75 3.07663 18.6315 2.79048 18.4205 2.5795C18.2095 2.36853 17.9234 2.25 17.625 2.25H10.125V1.125C10.125 0.826631 10.0065 0.540483 9.7955 0.329505C9.58452 0.118526 9.29837 0 9 0C8.70163 0 8.41548 0.118526 8.20451 0.329505C7.99353 0.540483 7.875 0.826631 7.875 1.125V5.625C7.875 5.92337 7.99353 6.20952 8.20451 6.4205C8.41548 6.63147 8.70163 6.75 9 6.75C9.29837 6.75 9.58452 6.63147 9.7955 6.4205C10.0065 6.20952 10.125 5.92337 10.125 5.625ZM14.625 12.375V11.25H17.625C17.9234 11.25 18.2095 11.1315 18.4205 10.9205C18.6315 10.7095 18.75 10.4234 18.75 10.125C18.75 9.82663 18.6315 9.54048 18.4205 9.3295C18.2095 9.11853 17.9234 9 17.625 9H14.625V7.875C14.625 7.57663 14.5065 7.29048 14.2955 7.0795C14.0845 6.86853 13.7984 6.75 13.5 6.75C13.2016 6.75 12.9155 6.86853 12.7045 7.0795C12.4935 7.29048 12.375 7.57663 12.375 7.875V12.375C12.375 12.6734 12.4935 12.9595 12.7045 13.1705C12.9155 13.3815 13.2016 13.5 13.5 13.5C13.7984 13.5 14.0845 13.3815 14.2955 13.1705C14.5065 12.9595 14.625 12.6734 14.625 12.375Z" fill="white"/>
</svg>
