<svg width="16" height="16" viewBox="0 0 16 16" fill="none" xmlns="http://www.w3.org/2000/svg">
<g clip-path="url(#clip0_401_323)">
<path d="M9.2079 11.0294C9.34539 11.0925 9.50028 11.107 9.64706 11.0703C9.79384 11.0336 9.92376 10.9481 10.0154 10.8277L10.2517 10.5181C10.3757 10.3528 10.5366 10.2186 10.7214 10.1261C10.9063 10.0337 11.1102 9.98557 11.3169 9.98557H13.314C13.6671 9.98557 14.0057 10.1258 14.2554 10.3755C14.5051 10.6252 14.6454 10.9639 14.6454 11.317V13.3141C14.6454 13.6672 14.5051 14.0058 14.2554 14.2555C14.0057 14.5052 13.6671 14.6455 13.314 14.6455C10.136 14.6455 7.08813 13.383 4.84094 11.1359C2.59375 8.88867 1.3313 5.84083 1.3313 2.66283C1.3313 2.30972 1.47157 1.97107 1.72126 1.72138C1.97095 1.47169 2.30959 1.33142 2.66271 1.33142H4.65982C5.01293 1.33142 5.35158 1.47169 5.60126 1.72138C5.85095 1.97107 5.99122 2.30972 5.99122 2.66283V4.65994C5.99122 4.86663 5.9431 5.07049 5.85066 5.25536C5.75823 5.44024 5.62402 5.60105 5.45866 5.72507L5.14711 5.95873C5.0249 6.05204 4.93876 6.18479 4.90333 6.33442C4.86789 6.48404 4.88535 6.64132 4.95273 6.77954C5.86253 8.62744 7.35886 10.1219 9.2079 11.0294Z" stroke="#7BBF33" stroke-width="1.33141" stroke-linecap="round" stroke-linejoin="round"/>
</g>
<defs>
<clipPath id="clip0_401_323">
<rect width="15.9769" height="15.9769" fill="white"/>
</clipPath>
</defs>
</svg>
