<svg width="21" height="20" viewBox="0 0 21 20" fill="none" xmlns="http://www.w3.org/2000/svg">
<path d="M12.5176 4.37595C13.3871 4.53678 14.1862 4.93995 14.8126 5.53384C15.439 6.12774 15.8643 6.88534 16.0339 7.70969M12.5176 1C14.3241 1.19027 16.0086 1.95723 17.2947 3.17496C18.5807 4.39269 19.3918 5.98881 19.5948 7.70125M18.7046 14.4363V16.9682C18.7056 17.2033 18.6548 17.4359 18.5555 17.6513C18.4561 17.8667 18.3105 18.06 18.1278 18.2189C17.9451 18.3778 17.7294 18.4988 17.4945 18.5741C17.2597 18.6494 17.0108 18.6774 16.7639 18.6562C14.0246 18.374 11.3933 17.4866 9.08141 16.0652C6.93051 14.7694 5.10693 13.0405 3.74016 11.0012C2.23569 8.79945 1.29943 6.29264 1.00723 3.68388C0.98498 3.45049 1.01424 3.21526 1.09313 2.99318C1.17203 2.7711 1.29883 2.56702 1.46547 2.39395C1.63212 2.22087 1.83494 2.08259 2.06105 1.98791C2.28715 1.89322 2.53156 1.84421 2.77874 1.84399H5.44936C5.88139 1.83996 6.30022 1.985 6.62778 2.25208C6.95535 2.51917 7.16931 2.89006 7.22978 3.29564C7.3425 4.10593 7.55154 4.90152 7.85292 5.66725C7.97269 5.96933 7.99862 6.29763 7.92762 6.61326C7.85662 6.92888 7.69167 7.21859 7.45233 7.44806L6.32177 8.51992C7.58903 10.6329 9.43434 12.3824 11.663 13.5838L12.7936 12.512C13.0356 12.2851 13.3412 12.1287 13.6741 12.0614C14.007 11.9941 14.3533 12.0186 14.6719 12.1322C15.4796 12.4179 16.3187 12.6161 17.1734 12.723C17.6058 12.7808 18.0008 12.9873 18.2831 13.3032C18.5654 13.6191 18.7154 14.0224 18.7046 14.4363Z" stroke="#45556C" stroke-width="2" stroke-linecap="round" stroke-linejoin="round"/>
</svg>
