<svg width="20" height="20" viewBox="0 0 20 20" fill="none" xmlns="http://www.w3.org/2000/svg">
<path d="M9.59749 1.9111C9.63398 1.83737 9.69036 1.77531 9.76025 1.73191C9.83014 1.68852 9.91078 1.66553 9.99304 1.66553C10.0753 1.66553 10.1559 1.68852 10.2258 1.73191C10.2957 1.77531 10.3521 1.83737 10.3886 1.9111L12.3122 5.80753C12.439 6.06399 12.626 6.28587 12.8574 6.45412C13.0887 6.62237 13.3575 6.73197 13.6405 6.77352L17.9425 7.40307C18.024 7.41489 18.1006 7.44927 18.1635 7.50234C18.2265 7.55541 18.2734 7.62504 18.2989 7.70337C18.3244 7.7817 18.3274 7.86559 18.3077 7.94556C18.288 8.02553 18.2463 8.09838 18.1873 8.15588L15.0761 11.1854C14.871 11.3854 14.7175 11.6322 14.6288 11.9046C14.5402 12.177 14.5191 12.4669 14.5673 12.7493L15.3018 17.0296C15.3162 17.1111 15.3074 17.195 15.2764 17.2717C15.2454 17.3484 15.1935 17.4149 15.1266 17.4635C15.0596 17.5121 14.9804 17.541 14.8978 17.5467C14.8153 17.5524 14.7328 17.5349 14.6598 17.496L10.8141 15.4741C10.5607 15.341 10.2788 15.2715 9.99263 15.2715C9.70643 15.2715 9.42451 15.341 9.17112 15.4741L5.32632 17.496C5.25332 17.5346 5.17093 17.552 5.08853 17.5462C5.00613 17.5403 4.92703 17.5114 4.86023 17.4629C4.79342 17.4143 4.74159 17.3479 4.71064 17.2713C4.67968 17.1947 4.67083 17.111 4.68511 17.0296L5.41876 12.7502C5.46722 12.4676 5.44622 12.1776 5.35758 11.905C5.26894 11.6323 5.11531 11.3854 4.90995 11.1854L1.7988 8.15671C1.73934 8.09928 1.6972 8.0263 1.67719 7.94609C1.65718 7.86588 1.6601 7.78166 1.68561 7.70302C1.71113 7.62439 1.75822 7.5545 1.82152 7.50132C1.88481 7.44815 1.96177 7.41382 2.04363 7.40224L6.34477 6.77352C6.62812 6.7323 6.89721 6.62284 7.12888 6.45456C7.36054 6.28629 7.54785 6.06424 7.67467 5.80753L9.59749 1.9111Z" stroke="#FB9400" stroke-width="1.6655" stroke-linecap="round" stroke-linejoin="round"/>
</svg>
