<svg width="102" height="102" viewBox="0 0 102 102" fill="none" xmlns="http://www.w3.org/2000/svg">
<g filter="url(#filter0_d_574_2419)">
<rect x="21" y="21" width="60" height="60" rx="30" fill="#1A50A4"/>
<g clip-path="url(#clip0_574_2419)">
<path d="M33.8572 34.9284C33.8572 34.6442 33.9701 34.3717 34.171 34.1707C34.3719 33.9698 34.6444 33.8569 34.9286 33.8569H41.3572C41.6413 33.8569 41.9139 33.9698 42.1148 34.1707C42.3157 34.3717 42.4286 34.6442 42.4286 34.9284C42.4286 35.2125 42.3157 35.485 42.1148 35.686C41.9139 35.8869 41.6413 35.9998 41.3572 35.9998C38.3985 35.9998 36 38.3983 36 41.3569C36 41.6411 35.8872 41.9136 35.6862 42.1145C35.4853 42.3155 35.2128 42.4284 34.9286 42.4284C34.6444 42.4284 34.3719 42.3155 34.171 42.1145C33.9701 41.9136 33.8572 41.6411 33.8572 41.3569V34.9284ZM59.5715 34.9284C59.5715 34.6442 59.6843 34.3717 59.8853 34.1707C60.0862 33.9698 60.3587 33.8569 60.6429 33.8569H67.0715C67.3556 33.8569 67.6282 33.9698 67.8291 34.1707C68.03 34.3717 68.1429 34.6442 68.1429 34.9284V41.3569C68.1429 41.6411 68.03 41.9136 67.8291 42.1145C67.6282 42.3155 67.3556 42.4284 67.0715 42.4284C66.7873 42.4284 66.5148 42.3155 66.3139 42.1145C66.1129 41.9136 66 41.6411 66 41.3569C66 38.3983 63.6016 35.9998 60.6429 35.9998C60.3587 35.9998 60.0862 35.8869 59.8853 35.686C59.6843 35.485 59.5715 35.2125 59.5715 34.9284ZM34.9286 59.5712C35.2128 59.5712 35.4853 59.6841 35.6862 59.885C35.8872 60.086 36 60.3585 36 60.6427C36 63.6013 38.3985 65.9998 41.3572 65.9998C41.6413 65.9998 41.9139 66.1127 42.1148 66.3136C42.3157 66.5145 42.4286 66.7871 42.4286 67.0712C42.4286 67.3554 42.3157 67.6279 42.1148 67.8288C41.9139 68.0298 41.6413 68.1427 41.3572 68.1427H34.9286C34.6444 68.1427 34.3719 68.0298 34.171 67.8288C33.9701 67.6279 33.8572 67.3554 33.8572 67.0712V60.6427C33.8572 60.3585 33.9701 60.086 34.171 59.885C34.3719 59.6841 34.6444 59.5712 34.9286 59.5712ZM67.0715 59.5712C67.3556 59.5712 67.6282 59.6841 67.8291 59.885C68.03 60.086 68.1429 60.3585 68.1429 60.6427V67.0712C68.1429 67.3554 68.03 67.6279 67.8291 67.8288C67.6282 68.0298 67.3556 68.1427 67.0715 68.1427H60.6429C60.3587 68.1427 60.0862 68.0298 59.8853 67.8288C59.6843 67.6279 59.5715 67.3554 59.5715 67.0712C59.5715 66.7871 59.6843 66.5145 59.8853 66.3136C60.0862 66.1127 60.3587 65.9998 60.6429 65.9998C63.6016 65.9998 66 63.6013 66 60.6427C66 60.3585 66.1129 60.086 66.3139 59.885C66.5148 59.6841 66.7873 59.5712 67.0715 59.5712ZM42.4286 43.4998C42.4286 42.9081 42.9083 42.4284 43.5 42.4284C44.0918 42.4284 44.5715 42.9081 44.5715 43.4998C44.5715 44.0915 44.0918 44.5712 43.5 44.5712C42.9083 44.5712 42.4286 44.0915 42.4286 43.4998Z" fill="#6A7282"/>
<path d="M48.8571 38.1426H38.1428V48.8569H48.8571V38.1426ZM40.2857 40.2854H46.7143V46.714H40.2857V40.2854ZM44.5714 57.4283H42.4285V59.5711H44.5714V57.4283Z" fill="white"/>
<path d="M48.8571 53.1425H38.1428V63.8568H48.8571V53.1425ZM40.2857 55.2854H46.7143V61.7139H40.2857V55.2854ZM57.4285 42.4282H59.5714V44.5711H57.4285V42.4282Z" fill="white"/>
<path d="M53.1429 38.1426H63.8571V48.8569H53.1429V38.1426ZM55.2857 40.2854V46.714H61.7143V40.2854H55.2857ZM51 50.9997V55.2854H53.1429V57.4283H51V59.5712H55.2857V55.2854H57.4286V59.5712H59.5714V57.4283H63.8571V55.2854H57.4286V50.9997H51ZM55.2857 55.2854H53.1429V53.1426H55.2857V55.2854ZM63.8571 59.5712H61.7143V61.714H57.4286V63.8569H63.8571V59.5712ZM55.2857 63.8569V61.714H51V63.8569H55.2857Z" fill="white"/>
<path d="M59.5715 53.1429H63.8572V51H59.5715V53.1429Z" fill="white"/>
<circle cx="43.4761" cy="43.4759" r="1.2381" fill="white"/>
<path d="M34.5239 50.9996L67.762 50.7139" stroke="#6A7282" stroke-width="7" stroke-linecap="round" stroke-linejoin="round"/>
</g>
</g>
<defs>
<filter id="filter0_d_574_2419" x="0" y="0" width="102" height="102" filterUnits="userSpaceOnUse" color-interpolation-filters="sRGB">
<feFlood flood-opacity="0" result="BackgroundImageFix"/>
<feColorMatrix in="SourceAlpha" type="matrix" values="0 0 0 0 0 0 0 0 0 0 0 0 0 0 0 0 0 0 127 0" result="hardAlpha"/>
<feOffset/>
<feGaussianBlur stdDeviation="10.5"/>
<feComposite in2="hardAlpha" operator="out"/>
<feColorMatrix type="matrix" values="0 0 0 0 0.101961 0 0 0 0 0.313726 0 0 0 0 0.643137 0 0 0 1 0"/>
<feBlend mode="normal" in2="BackgroundImageFix" result="effect1_dropShadow_574_2419"/>
<feBlend mode="normal" in="SourceGraphic" in2="effect1_dropShadow_574_2419" result="shape"/>
</filter>
<clipPath id="clip0_574_2419">
<rect width="34.2857" height="34.2857" fill="white" transform="translate(33.8572 33.8569)"/>
</clipPath>
</defs>
</svg>
