<svg width="20" height="20" viewBox="0 0 20 20" fill="none" xmlns="http://www.w3.org/2000/svg">
<g clip-path="url(#clip0_96_274)">
<path d="M1.66553 7.91095C1.66554 6.98427 1.94666 6.07939 2.47174 5.31583C2.99682 4.55226 3.74117 3.96594 4.60647 3.63429C5.47177 3.30264 6.41732 3.24127 7.31823 3.45828C8.21915 3.6753 9.03304 4.16049 9.65242 4.84977C9.69604 4.89641 9.74878 4.9336 9.80737 4.95902C9.86596 4.98445 9.92914 4.99757 9.99301 4.99757C10.0569 4.99757 10.1201 4.98445 10.1787 4.95902C10.2372 4.9336 10.29 4.89641 10.3336 4.84977C10.951 4.156 11.7651 3.66674 12.6675 3.44709C13.5699 3.22744 14.5177 3.28782 15.385 3.6202C16.2522 3.95258 16.9976 4.54119 17.522 5.3077C18.0464 6.0742 18.3249 6.98224 18.3205 7.91095C18.3205 9.81794 17.0714 11.2419 15.8222 12.4911L11.2488 16.9155C11.0936 17.0937 10.9023 17.2368 10.6876 17.3354C10.4728 17.434 10.2395 17.4858 10.0032 17.4873C9.76695 17.4888 9.53304 17.44 9.31706 17.3441C9.10107 17.2482 8.90796 17.1075 8.75055 16.9313L4.16377 12.4911C2.91465 11.2419 1.66553 9.82627 1.66553 7.91095Z" stroke="#FB2C36" stroke-width="1.6655" stroke-linecap="round" stroke-linejoin="round"/>
</g>
<defs>
<clipPath id="clip0_96_274">
<rect width="19.986" height="19.986" fill="white"/>
</clipPath>
</defs>
</svg>
