<svg width="16" height="16" viewBox="0 0 16 16" fill="none" xmlns="http://www.w3.org/2000/svg">
<g clip-path="url(#clip0_401_302)">
<path d="M7.67235 1.52785C7.70152 1.46891 7.74659 1.4193 7.80246 1.38461C7.85834 1.34992 7.92279 1.33154 7.98856 1.33154C8.05432 1.33154 8.11878 1.34992 8.17465 1.38461C8.23053 1.4193 8.27559 1.46891 8.30477 1.52785L9.84254 4.64268C9.94385 4.8477 10.0934 5.02507 10.2783 5.15957C10.4633 5.29407 10.6781 5.38169 10.9043 5.4149L14.3434 5.91817C14.4085 5.92761 14.4697 5.9551 14.5201 5.99752C14.5705 6.03995 14.6079 6.09561 14.6283 6.15823C14.6487 6.22084 14.6511 6.28791 14.6353 6.35183C14.6196 6.41576 14.5862 6.474 14.5391 6.51997L12.052 8.9418C11.888 9.10163 11.7653 9.29893 11.6944 9.51672C11.6236 9.7345 11.6067 9.96624 11.6453 10.192L12.2324 13.6137C12.2439 13.6788 12.2369 13.7459 12.2121 13.8072C12.1873 13.8685 12.1458 13.9217 12.0923 13.9605C12.0388 13.9994 11.9754 14.0224 11.9095 14.027C11.8435 14.0316 11.7775 14.0176 11.7192 13.9865L8.64494 12.3702C8.44238 12.2638 8.21701 12.2082 7.98822 12.2082C7.75944 12.2082 7.53407 12.2638 7.33151 12.3702L4.25795 13.9865C4.19959 14.0174 4.13373 14.0313 4.06786 14.0266C4.00199 14.0219 3.93876 13.9989 3.88536 13.96C3.83195 13.9212 3.79052 13.8681 3.76577 13.8069C3.74102 13.7457 3.73395 13.6787 3.74536 13.6137L4.33185 10.1927C4.37059 9.9668 4.3538 9.73491 4.28294 9.517C4.21208 9.29908 4.08927 9.10167 3.9251 8.9418L1.43803 6.52063C1.3905 6.47472 1.35681 6.41638 1.34082 6.35226C1.32482 6.28814 1.32715 6.22081 1.34755 6.15795C1.36795 6.09509 1.40559 6.03922 1.45619 5.99671C1.50679 5.9542 1.56831 5.92676 1.63375 5.9175L5.07211 5.4149C5.29862 5.38195 5.51373 5.29444 5.69893 5.15993C5.88412 5.02541 6.03385 4.8479 6.13524 4.64268L7.67235 1.52785Z" fill="#FB9400" stroke="#FB9400" stroke-width="1.33141" stroke-linecap="round" stroke-linejoin="round"/>
</g>
<defs>
<clipPath id="clip0_401_302">
<rect width="15.9769" height="15.9769" fill="white"/>
</clipPath>
</defs>
</svg>
