<svg width="30" height="30" viewBox="0 0 30 30" fill="none" xmlns="http://www.w3.org/2000/svg">
<circle cx="14.5378" cy="14.5376" r="9.8491" fill="url(#paint0_linear_1266_2533)" stroke="url(#paint1_linear_1266_2533)" stroke-width="2"/>
<path d="M14.5381 24.9668C14.9742 24.967 15.3279 25.3207 15.3281 25.7568V28.2852C15.3281 28.7214 14.9743 29.075 14.5381 29.0752C14.1017 29.0752 13.748 28.7215 13.748 28.2852V25.7568C13.7482 25.3206 14.1018 24.9668 14.5381 24.9668ZM8.24414 23.8594C8.46232 23.4815 8.94534 23.3521 9.32324 23.5703C9.70092 23.7886 9.83043 24.2716 9.6123 24.6494L8.34863 26.8389C8.13045 27.2168 7.64645 27.3461 7.26855 27.1279C6.89093 26.9097 6.76156 26.4266 6.97949 26.0488L8.24414 23.8594ZM19.7529 23.5703C20.1308 23.3523 20.6139 23.4815 20.832 23.8594L22.0957 26.0488C22.3138 26.4267 22.1845 26.9098 21.8066 27.1279C21.4288 27.346 20.9458 27.2166 20.7275 26.8389L19.4629 24.6494C19.2447 24.2715 19.375 23.7885 19.7529 23.5703ZM4.42676 19.4629C4.8046 19.245 5.28775 19.3752 5.50586 19.7529C5.72371 20.1308 5.59453 20.6139 5.2168 20.832L3.02734 22.0957C2.64945 22.3139 2.16545 22.1845 1.94727 21.8066C1.72927 21.4288 1.85948 20.9457 2.2373 20.7275L4.42676 19.4629ZM23.5703 19.7529C23.7885 19.375 24.2715 19.2447 24.6494 19.4629L26.8389 20.7275C27.2166 20.9458 27.346 21.4288 27.1279 21.8066C26.9098 22.1845 26.4267 22.3138 26.0488 22.0957L23.8594 20.832C23.4815 20.6139 23.3523 20.1308 23.5703 19.7529ZM3.31836 13.748C3.75472 13.748 4.1084 14.1017 4.1084 14.5381C4.10824 14.9743 3.75462 15.3281 3.31836 15.3281H0.790039C0.353801 15.3281 0.000154808 14.9743 0 14.5381C1.9073e-08 14.1017 0.353706 13.7481 0.790039 13.748H3.31836ZM28.2852 13.748C28.7215 13.748 29.0752 14.1017 29.0752 14.5381C29.075 14.9743 28.7214 15.3281 28.2852 15.3281H25.7568C25.3207 15.3279 24.967 14.9742 24.9668 14.5381C24.9668 14.1018 25.3206 13.7482 25.7568 13.748H28.2852ZM1.94727 7.26855C2.16546 6.89071 2.64947 6.76133 3.02734 6.97949L5.2168 8.24414C5.59447 8.4624 5.72398 8.94544 5.50586 9.32324C5.28771 9.70105 4.80462 9.83032 4.42676 9.6123L2.2373 8.34863C1.85941 8.13045 1.72909 7.64645 1.94727 7.26855ZM26.0488 6.97949C26.4266 6.76156 26.9097 6.89093 27.1279 7.26855C27.3461 7.64645 27.2168 8.13045 26.8389 8.34863L24.6494 9.6123C24.2716 9.83043 23.7886 9.70093 23.5703 9.32324C23.3521 8.94534 23.4815 8.46232 23.8594 8.24414L26.0488 6.97949ZM7.26855 1.94727C7.64645 1.72909 8.13045 1.85941 8.34863 2.2373L9.6123 4.42676C9.83031 4.80462 9.70105 5.28771 9.32324 5.50586C8.94545 5.72398 8.4624 5.59446 8.24414 5.2168L6.97949 3.02734C6.76133 2.64947 6.89071 2.16546 7.26855 1.94727ZM20.7275 2.2373C20.9457 1.85948 21.4288 1.72927 21.8066 1.94727C22.1845 2.16545 22.3139 2.64945 22.0957 3.02734L20.832 5.2168C20.6138 5.59466 20.1298 5.72403 19.752 5.50586C19.3744 5.28766 19.2451 4.80449 19.4629 4.42676L20.7275 2.2373ZM14.5381 0C14.9743 0.000162944 15.3281 0.353808 15.3281 0.790039V3.31836C15.3281 3.75462 14.9743 4.10824 14.5381 4.1084C14.1017 4.1084 13.748 3.75472 13.748 3.31836V0.790039C13.7481 0.353707 14.1017 0 14.5381 0Z" fill="url(#paint2_linear_1266_2533)"/>
<defs>
<linearGradient id="paint0_linear_1266_2533" x1="19.5154" y1="6.95263" x2="11.4837" y2="23.4557" gradientUnits="userSpaceOnUse">
<stop offset="0.182844" stop-color="#FFE600"/>
<stop offset="0.980542" stop-color="#F09000"/>
</linearGradient>
<linearGradient id="paint1_linear_1266_2533" x1="10.0177" y1="3.66476" x2="22.4786" y2="33.5956" gradientUnits="userSpaceOnUse">
<stop stop-color="#FFE600"/>
<stop offset="1" stop-color="#9C8D00"/>
</linearGradient>
<linearGradient id="paint2_linear_1266_2533" x1="25.2037" y1="3.79242" x2="3.63438" y2="29.0752" gradientUnits="userSpaceOnUse">
<stop stop-color="#FFE600"/>
<stop offset="1" stop-color="#AA9900"/>
</linearGradient>
</defs>
</svg>
