<svg width="27" height="27" viewBox="0 0 27 27" fill="none" xmlns="http://www.w3.org/2000/svg">
<rect width="27" height="27" rx="8" fill="#ECEEF2"/>
<path d="M18.8276 16.2905C18.6795 17.0229 18.283 17.6818 17.7051 18.1556C17.1272 18.6294 16.4034 18.889 15.6561 18.8905C13.6552 18.8884 11.7369 18.0926 10.322 16.6777C8.90718 15.2629 8.11138 13.3446 8.10924 11.3437C8.11078 10.5964 8.37041 9.87255 8.84419 9.29464C9.31798 8.71674 9.97684 8.32022 10.7093 8.17218C10.9409 8.12635 11.1811 8.15779 11.393 8.26166C11.605 8.36554 11.777 8.5361 11.8827 8.74718L12.9141 10.8136C12.9987 10.9833 13.037 11.1724 13.0252 11.3617C13.0133 11.551 12.9518 11.7338 12.8467 11.8917L12.0812 13.0399C12.4753 13.8617 13.1381 14.5244 13.9599 14.9185L15.1081 14.1531C15.266 14.048 15.4488 13.9864 15.6381 13.9746C15.8274 13.9628 16.0164 14.0011 16.1862 14.0857L18.2526 15.1171C18.4637 15.2228 18.6342 15.3948 18.7381 15.6067C18.842 15.8187 18.8734 16.0589 18.8276 16.2905ZM23.203 13.4999C23.2033 15.162 22.7767 16.7963 21.9641 18.2462C21.1515 19.696 19.98 20.9128 18.562 21.7799C17.1441 22.6471 15.5272 23.1354 13.8663 23.1982C12.2054 23.2609 10.5562 22.896 9.07686 22.1384L6.16322 23.1132C5.84604 23.2201 5.5053 23.2363 5.17942 23.1599C4.85353 23.0835 4.55545 22.9177 4.31877 22.681C4.0821 22.4443 3.91623 22.1462 3.83987 21.8204C3.76351 21.4945 3.77969 21.1537 3.88658 20.8365L4.85779 17.9229C4.19087 16.6166 3.82879 15.176 3.79878 13.7096C3.76876 12.2431 4.07159 10.789 4.68449 9.4564C5.29739 8.12384 6.20442 6.94758 7.33737 6.01604C8.47033 5.0845 9.79973 4.42193 11.2256 4.07815C12.6515 3.73437 14.1368 3.71832 15.5698 4.03121C17.0028 4.3441 18.3462 4.97779 19.499 5.88464C20.6518 6.79148 21.584 7.94787 22.2256 9.26688C22.8671 10.5859 23.2013 12.0332 23.203 13.4999ZM21.0467 13.4999C21.0463 12.3423 20.7796 11.2003 20.2672 10.1623C19.7548 9.12429 19.0105 8.21805 18.0918 7.5137C17.1732 6.80935 16.1048 6.32577 14.9694 6.10037C13.8339 5.87496 12.6618 5.91378 11.5438 6.21382C10.4258 6.51386 9.39173 7.06707 8.52169 7.83066C7.65165 8.59425 6.96894 9.54775 6.52635 10.6174C6.08377 11.6871 5.89318 12.8442 5.96934 13.9993C6.04549 15.1544 6.38634 16.2765 6.96553 17.2787C7.04208 17.4109 7.08967 17.5578 7.10516 17.7098C7.12065 17.8617 7.10368 18.0152 7.05537 18.1601L6.16322 20.8365L8.83967 19.9444C8.94977 19.9077 9.06503 19.8889 9.18107 19.8887C9.37043 19.889 9.55635 19.9392 9.72014 20.0342C10.8675 20.6981 12.1694 21.0481 13.495 21.049C14.8205 21.0498 16.1229 20.7015 17.2711 20.0392C18.4193 19.3768 19.3728 18.4236 20.0356 17.2757C20.6984 16.1277 21.0471 14.8255 21.0467 13.4999Z" fill="#45556C"/>
</svg>
